<svg width="71" height="61" viewBox="0 0 71 61" fill="none" xmlns="http://www.w3.org/2000/svg">
<g clip-path="url(#clip0_121_2)">
<path d="M58.0909 22.1818L62.125 14.5568L71 11.0909L62.125 7.625L58.0909 0L54.0568 7.625L45.1818 11.0909L54.0568 14.5568L58.0909 22.1818Z" fill="#464646"/>
<path d="M58.0909 38.8182L54.0568 46.4432L45.1818 49.9091L54.0568 53.3751L58.0909 61.0001L62.125 53.3751L71 49.9091L62.125 46.4432L58.0909 38.8182Z" fill="#464646"/>
<path d="M33.8864 23.5682L25.8182 8.31824L17.75 23.5682L0 30.5001L17.75 37.4319L25.8182 52.6819L33.8864 37.4319L51.6364 30.5001L33.8864 23.5682ZM29.0132 33.2451L25.8182 39.2896L22.6232 33.2451L15.5877 30.5001L22.6232 27.7551L25.8182 21.7105L29.0132 27.7551L36.0486 30.5001L29.0132 33.2451Z" fill="#464646"/>
</g>
<defs>
<clipPath id="clip0_121_2">
<rect width="71" height="61" fill="white"/>
</clipPath>
</defs>
</svg>
